<svg viewBox="0 0 390 123" xmlns="http://www.w3.org/2000/svg" fill-rule="evenodd" clip-rule="evenodd" stroke-linejoin="round" stroke-miterlimit="2">
  <path d="M340.638 107.957L89.23 17.335l250.242 102.897 1.166-12.275z" fill="#fff"/>
  <path d="M182.955 32.813v-3.809l1.03-5.77 1.031 5.77v3.818c1.037.365 2.075 1.275 3.113 2.719v7.598h2.188v11.504h2.33v.929h-2.33v1.597h3.645v36.178h7.198v-1.744h9.769V67.557h1.683v-3.575h2.178v-2.719h8.416v2.719h2.178v3.575h1.683v34.52h2.109V86.779h3.732v15.298h1.705V86.779h3.732v15.298h1.424v14.788h5.469V76.119h1.681v-1.234h5.18v1.234h4.057V74.04h2.082v2.079h.722v28.621h3.219V67.557h2.383v-4.466h4.511v4.466h8.499v15.317h7.918v21.866h5.103v-5.701h2.208v-3.518h4.511v3.518h5.684v-3.518h4.51v3.518h1.603V81.836h15.255v17.203h3.261v6.453h2.995v11.373h4.961v-40.21h1.939v-2.827h4.511v2.827h8.805v3.034h4.39v-3.034h6.107v-1.872h1.52v1.872h1.036v-2.827h4.511v2.827h2.081v40.21h3.003v-8.956h5.505v-9.901h5.506v-.983h4.51v.983H390v25.684H.004v-1.734H0v-17.985h.887v-2.437h4.308v2.437h1.251v-2.391H8.6v2.391h1.411v12.892h2.358v-23.1h1.174v-3.844h.78v-1.904h2.15v1.904h.78v1.277h3.571v2.567h1.312v12.908h1.449v-15.07l3.325-1.445v-8.057h4.308v6.185l4.272-1.856v-9.224h1.02v-1.345h8.47v1.345h.794v39.659h2.412V85.987h17.77v8.597h5.492V67.557h3.957v-4.466h4.066v4.466h9.747v37.183h4.078V60.857h7.479v-3.481h.891v-4.941h1.945v4.941h.665v-4.941h1.945v4.941h.773v-4.941h1.945v4.941h.828v-4.941h1.945v4.941h2.324v59.489h2.262V84.636h8.181v4.455h20.812v-12.02h1.498v-3.942l7.367 2.22v1.722h1.498v24.915h4.85V87.647h.677v-4.475h5.143v4.475h.506v-2.015h1.107v2.015h.483v-2.015h1.107v2.015h1.34v14.339h3.141V57.169h3.646v-1.597h-2.33v-.929h2.33V43.139h2.188v-7.598c1.038-1.464 2.075-2.371 3.113-2.728zm-43.818 61.771v-3.271h-14.658v25.552h1.725V96.309h4.666v-3.768h2.765v3.768h1.041v-3.768h2.765v3.768h.688v-1.725h1.008zm54.825 13.395v8.886h7.198v-8.886h-7.198zm156.874-10.311v19.197h4.39V97.668h-4.39zm-156.874-1.846v9.682h7.198v-9.682h-7.198zm156.874-13.986v13.685h4.39V81.836h-4.39zm-206.235 9.477v3.271h.69v-3.271h-.69zM90.921 15.027l2.051-2.488-1.276-.637c-2.059.492-4.334 1.216-6.679 2.014l-9.798-3.931.637-1.111c1.274.068 1.815-.265 1.496-.937 0 0 12.174-6.464 14.091-7.483.038-.02.059-.061.052-.103-.006-.042-.038-.075-.08-.083-.333-.062-.883-.164-1.199-.223-.16-.029-.325-.02-.48.029C87.673.717 72.827 5.35 72.827 5.35l-3.456-1.389c-1.163-.149-1.805.621-1.544 2.057l.967.603-1.187.342S54.631 1.889 51.722.751c-.454-.177-.931-.29-1.417-.333-1.929-.152-4.072.1-4.997.824-.177.174-.265.419-.238.665.036.19.105.31.105.31.893 1.157 2.043 2.127 3.465 2.897.213.115.434.214.66.299 1.586.605 12.169 4.565 12.238 4.777.034.105.001.621-.046 1.153.014.314-.122.615-.366.812-.245.197-.568.267-.872.187-.256-.055-.492-.117-.637-.155-.2-.054-.414-.021-.589.091-.421.324-.55.766-.452 1.293.043.241.206.443.433.536.358.183 1.01.449 1.504.651.395.161.644.555.621.981-.048.867-.128 2.324-.177 3.21-.024.444.257.848.681.98h.001c.356.111.745.005.997-.271 1.1-1.206 4.023-4.41 4.023-4.41l3.435-1.228s1.201.413 1.52.523c.051.017.104.031.157.04.39.066 2.093.357 2.514.428.063.011.124.028.184.05.711.268 5.428 2.042 6.108 2.298.054.02.111.036.168.047 1.792.333 3.432.497 5.057.642-.043 1-.045 1.795 0 2.36.436.301.884.472 1.342.534.783-.681 1.565-1.553 2.348-2.516l2.391.187c.161-.142.245-.336.276-.565l-1.07-.868 6.738-2.877-1.39-.556c-1.517.214-3.388.659-5.516 1.28z" fill="#212121"/>
</svg>
