<svg viewBox="0 0 335 63" xmlns="http://www.w3.org/2000/svg" fill-rule="evenodd" clip-rule="evenodd" stroke-linecap="round" stroke-linejoin="round" stroke-miterlimit="1.5"><path d="M0 0v8.514h9.467v22.155h8.6V8.514h9.467V0H0z" fill="url(#_Linear1)" fill-rule="nonzero"/><path d="M49.934 0v11.066h-11.2V0h-8.6v30.669h8.6V19.602h11.2v11.067h8.601V0h-8.601z" fill="url(#_Linear2)" fill-rule="nonzero"/><path d="M61.134 0v30.669h26.668v-8.515H69.735v-3.41h12.348v-6.82H69.735v-3.41h18.067V0H61.134z" fill="url(#_Linear3)" fill-rule="nonzero"/><path d="M101.407 0v30.669h26.667v-8.515h-18.067V0h-8.6z" fill="url(#_Linear4)" fill-rule="nonzero"/><path d="M160.58 15.334c0-4.232-1.516-7.842-4.549-10.83C153.012 1.501 149.366 0 145.091 0c-4.275 0-7.922 1.501-10.94 4.504-3.033 2.988-4.55 6.598-4.55 10.83s1.517 7.843 4.55 10.831c3.018 3.002 6.665 4.504 10.94 4.504 4.275 0 7.921-1.502 10.94-4.504 3.033-2.988 4.549-6.599 4.549-10.831z" fill="url(#_Linear5)" fill-rule="nonzero"/><path d="M182.114 19.602c.361 0 .664.122.909.365.26.257.39.557.39.901 0 .357-.13.657-.39.9-.245.258-.548.386-.909.386h-17.223v8.515h17.223c2.729 0 5.062-.958 6.997-2.874 1.935-1.916 2.903-4.225 2.903-6.927 0-2.703-.968-5.012-2.903-6.928-1.935-1.916-4.268-2.874-6.997-2.874h-9.034c-.361 0-.664-.121-.91-.364-.26-.258-.39-.558-.39-.901 0-.357.13-.658.39-.901.246-.257.549-.386.91-.386h17.201V0H173.08c-2.73 0-5.062.958-6.997 2.874-1.936 1.916-2.903 4.225-2.903 6.927s.967 5.011 2.903 6.927c1.935 1.916 4.267 2.874 6.997 2.874h9.034z" fill="url(#_Linear6)" fill-rule="nonzero"/><path d="M194.613 0v8.514h9.467v22.155h8.601V8.514h9.467V0h-27.535z" fill="url(#_Linear7)" fill-rule="nonzero"/><path d="M251.242 30.669c4.275 0 7.921-1.495 10.94-4.483l-6.088-6.026c-1.343 1.329-2.96 1.994-4.852 1.994-1.907 0-3.531-.665-4.875-1.994-1.343-1.33-2.014-2.938-2.014-4.826 0-1.873.671-3.474 2.014-4.804 1.344-1.329 2.968-1.994 4.875-1.994 1.892 0 3.509.665 4.852 1.994l6.088-6.026c-3.019-2.988-6.665-4.483-10.94-4.483-4.29 0-7.944 1.495-10.962 4.483-3.018 2.988-4.528 6.598-4.528 10.83 0 4.247 1.51 7.864 4.528 10.852 3.018 2.988 6.672 4.483 10.962 4.483z" fill="url(#_Linear8)" fill-rule="nonzero"/><path fill="url(#_Linear9)" fill-rule="nonzero" d="M264.781 0h8.6v30.669h-8.6z"/><path d="M275.981 0v8.514h9.467v22.155h8.601V8.514h9.466V0h-27.534z" fill="url(#_Linear10)" fill-rule="nonzero"/><path d="M324.941 0L320.5 7.656 316.037 0h-9.922l10.074 17.329v13.34h8.6v-13.34L334.884 0h-9.943z" fill="url(#_Linear11)" fill-rule="nonzero"/><path d="M40.947 57.051v4.195h-6.699V42.488h9.227c2.026 0 3.756.71 5.19 2.129 1.437 1.423 2.154 3.141 2.154 5.152 0 1.296-.324 2.506-.975 3.631-.461.794-1.042 1.472-1.742 2.033l3.482 5.813h-7.789l-2.509-4.195h-.339zm-1-1h1.906l2.509 4.195h5.457l-3.054-5.098c.932-.562 1.669-1.312 2.214-2.25.56-.969.84-2.012.84-3.129 0-1.734-.619-3.215-1.858-4.441-1.239-1.227-2.734-1.84-4.486-1.84h-8.227v16.758h4.699v-4.195zm0-7.911h3.528c.457 0 .844.161 1.16.481.323.32.485.703.485 1.148 0 .453-.162.836-.485 1.149-.316.32-.703.48-1.16.48h-3.528V48.14zm1 2.258h2.528c.176 0 .326-.059.456-.191l.009-.009c.121-.116.18-.26.18-.429 0-.17-.065-.315-.198-.446-.121-.124-.271-.183-.447-.183h-2.528v1.258zM79.098 61.246c2.611 0 4.839-.918 6.683-2.752 1.853-1.826 2.78-4.036 2.78-6.627s-.927-4.801-2.784-6.63c-1.84-1.831-4.068-2.749-6.679-2.749-2.612 0-4.839.918-6.683 2.752-1.854 1.826-2.781 4.036-2.781 6.627s.927 4.801 2.784 6.63c1.841 1.831 4.068 2.749 6.68 2.749zm0-1c2.336 0 4.328-.82 5.977-2.461 1.658-1.633 2.486-3.606 2.486-5.918 0-2.313-.828-4.285-2.486-5.918-1.649-1.641-3.641-2.461-5.977-2.461-2.336 0-4.329.82-5.978 2.461-1.657 1.633-2.486 3.605-2.486 5.918 0 2.312.829 4.285 2.486 5.918 1.649 1.641 3.642 2.461 5.978 2.461zm0-12.106c1.033 0 1.921.364 2.663 1.09.734.735 1.101 1.613 1.101 2.637 0 1.023-.367 1.902-1.101 2.637-.742.726-1.63 1.089-2.663 1.089-1.034 0-1.922-.363-2.664-1.089-.734-.735-1.101-1.614-1.101-2.637 0-1.024.367-1.902 1.101-2.637.742-.726 1.63-1.09 2.664-1.09zm0 1c.762 0 1.416.269 1.963.805.53.53.801 1.173.801 1.922 0 .749-.271 1.392-.808 1.93-.54.528-1.194.796-1.956.796-.763 0-1.417-.268-1.964-.804-.53-.53-.801-1.173-.801-1.922 0-.749.271-1.392.809-1.93.539-.528 1.193-.797 1.956-.797zM114.075 54.593h9.873v6.653h-16.572V42.488h6.699v12.105zm-5.699-11.105v16.758h14.572v-4.653h-9.873V43.488h-4.699zM156.209 54.593h3.125v6.653h-16.572V42.488h16.572v6.652h-3.125v5.453zm-12.447-11.105v16.758h14.572v-4.653h-9.872V53.73h6.747v-3.726h-6.747V48.14h9.872v-4.652h-14.572zM184.848 57.051v4.195h-6.7V42.488h9.227c2.027 0 3.757.71 5.19 2.129 1.437 1.423 2.155 3.141 2.155 5.152 0 2.012-.718 3.73-2.155 5.152-1.433 1.419-3.163 2.13-5.19 2.13h-2.527zm-1-1h3.527c1.752 0 3.248-.614 4.487-1.84 1.239-1.227 1.858-2.707 1.858-4.442 0-1.734-.619-3.215-1.858-4.441-1.239-1.227-2.735-1.84-4.487-1.84h-8.227v16.758h4.7v-4.195zm0-7.911h3.527c.458 0 .845.161 1.16.481.324.32.486.703.486 1.148 0 .453-.162.836-.486 1.149-.315.32-.702.48-1.16.48h-3.527V48.14zm1 2.258h2.527c.177 0 .327-.059.457-.191l.009-.009c.12-.116.18-.26.18-.429 0-.17-.065-.315-.198-.446-.121-.124-.271-.183-.448-.183h-2.527v1.258zM220.234 54.593h9.872v6.653h-16.571V42.488h6.699v12.105zm-5.699-11.105v16.758h14.571v-4.653h-9.872V43.488h-4.699zM256.567 58.914l-.924 2.332h-7.192l7.407-18.758h6.765l7.208 18.758h-7.173l-.899-2.332h-5.192zm-.029-15.426l-6.617 16.758h5.043l.923-2.332h6.558l.899 2.332h5.031l-6.439-16.758h-5.398zm2.675 6l1.444 3.773h-2.935l1.491-3.773zm-.021 2.773h.012l-.006-.015-.006.015zM291.774 45.682l1.853-3.194h7.749l-6.256 10.739v8.019h-6.699v-8.02l-6.243-10.738h7.735l1.861 3.194zm2.429-2.194l-2.427 4.184-2.438-4.184h-5.422l5.505 9.469v7.289h4.699v-7.289l5.516-9.469h-5.433z" fill="#ff7023"/><g><path fill="#202020" d="M144.542 3.543h1.722v2.069h-1.722zM144.542 6.143h1.722v.513h-1.722zM144.542 9.969h1.722v.513h-1.722zM144.542 13.795h1.722v.513h-1.722zM157.442 16.444v-1.722h-2.069v1.722h2.069zM154.842 16.444v-1.722h-.513v1.722h.513zM151.017 16.444v-1.722h-.513v1.722h.513zM147.191 16.444v-1.722h-.513v1.722h.513zM144.542 25.554h1.722v2.069h-1.722zM144.542 24.51h1.722v.513h-1.722zM144.542 20.684h1.722v.513h-1.722zM144.542 16.859h1.722v.513h-1.722zM133.363 14.722v1.722h2.069v-1.722h-2.069zM135.962 14.722v1.722h.513v-1.722h-.513zM139.788 14.722v1.722h.513v-1.722h-.513zM143.614 14.722v1.722h.513v-1.722h-.513z"/><path fill="#202020" d="M145.125 3.891h.555v23.384h-.555z"/><path d="M157.094 15.84v-.513H133.71v.513h23.384z" fill="#202020"/><circle cx="145.402" cy="15.583" r="2.798" fill="none" stroke="#202020"/></g><defs><linearGradient id="_Linear1" x1="0" y1="0" x2="1" y2="0" gradientUnits="userSpaceOnUse" gradientTransform="rotate(90 89.1307 76.3113) scale(73.0653)"><stop offset="0" stop-color="#ff7023"/><stop offset="1" stop-color="#b53f00"/></linearGradient><linearGradient id="_Linear2" x1="0" y1="0" x2="1" y2="0" gradientUnits="userSpaceOnUse" gradientTransform="rotate(90 89.1307 76.3113) scale(73.0653)"><stop offset="0" stop-color="#ff7023"/><stop offset="1" stop-color="#b53f00"/></linearGradient><linearGradient id="_Linear3" x1="0" y1="0" x2="1" y2="0" gradientUnits="userSpaceOnUse" gradientTransform="rotate(90 89.1307 76.3113) scale(73.0653)"><stop offset="0" stop-color="#ff7023"/><stop offset="1" stop-color="#b53f00"/></linearGradient><linearGradient id="_Linear4" x1="0" y1="0" x2="1" y2="0" gradientUnits="userSpaceOnUse" gradientTransform="rotate(90 89.1307 76.3113) scale(73.0653)"><stop offset="0" stop-color="#ff7023"/><stop offset="1" stop-color="#b53f00"/></linearGradient><linearGradient id="_Linear5" x1="0" y1="0" x2="1" y2="0" gradientUnits="userSpaceOnUse" gradientTransform="rotate(90 89.1307 76.3113) scale(73.0653)"><stop offset="0" stop-color="#ff7023"/><stop offset="1" stop-color="#b53f00"/></linearGradient><linearGradient id="_Linear6" x1="0" y1="0" x2="1" y2="0" gradientUnits="userSpaceOnUse" gradientTransform="rotate(90 89.1307 76.3113) scale(73.0653)"><stop offset="0" stop-color="#ff7023"/><stop offset="1" stop-color="#b53f00"/></linearGradient><linearGradient id="_Linear7" x1="0" y1="0" x2="1" y2="0" gradientUnits="userSpaceOnUse" gradientTransform="rotate(90 89.1307 76.3113) scale(73.0653)"><stop offset="0" stop-color="#ff7023"/><stop offset="1" stop-color="#b53f00"/></linearGradient><linearGradient id="_Linear8" x1="0" y1="0" x2="1" y2="0" gradientUnits="userSpaceOnUse" gradientTransform="rotate(90 89.1307 76.3113) scale(73.0653)"><stop offset="0" stop-color="#ff7023"/><stop offset="1" stop-color="#b53f00"/></linearGradient><linearGradient id="_Linear9" x1="0" y1="0" x2="1" y2="0" gradientUnits="userSpaceOnUse" gradientTransform="rotate(90 89.1307 76.3113) scale(73.0653)"><stop offset="0" stop-color="#ff7023"/><stop offset="1" stop-color="#b53f00"/></linearGradient><linearGradient id="_Linear10" x1="0" y1="0" x2="1" y2="0" gradientUnits="userSpaceOnUse" gradientTransform="rotate(90 89.1307 76.3113) scale(73.0653)"><stop offset="0" stop-color="#ff7023"/><stop offset="1" stop-color="#b53f00"/></linearGradient><linearGradient id="_Linear11" x1="0" y1="0" x2="1" y2="0" gradientUnits="userSpaceOnUse" gradientTransform="rotate(90 89.1307 76.3113) scale(73.0653)"><stop offset="0" stop-color="#ff7023"/><stop offset="1" stop-color="#b53f00"/></linearGradient></defs></svg>