<svg viewBox="0 0 248 51" xmlns="http://www.w3.org/2000/svg" fill-rule="evenodd" clip-rule="evenodd" stroke-linejoin="round" stroke-miterlimit="2">
  <path d="M50.273 0H0v50.273h50.273V0zM34.965 25.137L17.308 36.962v-23.65l17.657 11.825z" fill="#fff"/>
  <path d="M74.372 13.957h10.582c1.373 0 2.533.48 3.48 1.441.971.961 1.456 2.11 1.456 3.446 0 1.359-.485 2.508-1.456 3.445-.947.961-2.107 1.441-3.48 1.441H74.372v-9.773zm0 23.731h10.582c5.256 0 9.742-1.84 13.459-5.52 3.717-3.68 5.575-8.121 5.575-13.324 0-5.203-1.858-9.645-5.575-13.324C94.696 1.84 90.21 0 84.954 0H60.273v50.273h14.099V37.688zM108.25 0v50.273h43.715V36.316h-29.617V0H108.25zM176.077 0l-19.851 50.273h15.128l2.77-6.996h19.674l2.699 6.996h15.092L192.271 0h-16.194zm8.026 18l4.332 11.32h-8.807L184.103 18zM230.89 0l-7.28 12.551L216.294 0H200.03l16.513 28.406v21.867h14.098V28.406L247.19 0h-16.3z" fill="#fff" fill-rule="nonzero"/>
</svg>
