<svg viewBox="0 0 380 629" xmlns="http://www.w3.org/2000/svg" fill-rule="evenodd" clip-rule="evenodd" stroke-linejoin="round" stroke-miterlimit="2"><g fill="#2f2f2f" fill-rule="nonzero"><path d="M0 106.524v95.952h83.937v-26.638H27.07v-69.314H0zm2.727 2.684h21.684v69.247h56.867v21.337H2.727v-90.584zM91.437 154.5c0-12.481 4.501-23.149 13.501-32.007 9.001-8.857 19.842-13.285 32.525-13.285 12.682 0 23.524 4.428 32.524 13.285 9.001 8.858 13.501 19.526 13.501 32.007 0 12.481-4.5 23.149-13.501 32.007-9 8.857-19.842 13.285-32.524 13.285-12.683 0-23.524-4.428-32.525-13.285-9-8.858-13.501-19.526-13.501-32.007zm94.779 0c0-13.241-4.773-24.536-14.319-33.885-9.501-9.394-20.979-14.091-34.434-14.091-13.456 0-24.934 4.697-34.434 14.091-9.546 9.349-14.319 20.644-14.319 33.885s4.773 24.536 14.319 33.885c9.5 9.394 20.978 14.091 34.434 14.091 13.455 0 24.933-4.697 34.434-14.091 9.546-9.349 14.319-20.644 14.319-33.885zm-70.436 0c0-5.86 2.113-10.893 6.341-15.097 4.273-4.161 9.387-6.241 15.342-6.241s11.069 2.08 15.342 6.241c4.227 4.204 6.341 9.237 6.341 15.097 0 5.86-2.114 10.893-6.341 15.097-4.273 4.161-9.387 6.241-15.342 6.241s-11.069-2.08-15.342-6.241c-4.228-4.204-6.341-9.237-6.341-15.097zm46.093 0c0-6.621-2.386-12.279-7.159-16.976-4.773-4.697-10.524-7.046-17.251-7.046-6.728 0-12.478 2.349-17.251 7.046-4.728 4.697-7.092 10.355-7.092 16.976 0 6.621 2.364 12.279 7.092 16.976 4.773 4.653 10.523 6.979 17.251 6.979 6.727 0 12.478-2.326 17.251-6.979 4.773-4.697 7.159-10.355 7.159-16.976zM202.512 178.455h51.48c1.864 0 3.455-.649 4.773-1.946 1.319-1.298 1.978-2.863 1.978-4.697s-.659-3.4-1.978-4.697c-1.318-1.297-2.909-1.946-4.773-1.946h-28.433c-7.864 0-14.569-2.729-20.115-8.186-5.546-5.502-8.319-12.101-8.319-19.795 0-7.739 2.773-14.337 8.319-19.794 5.546-5.458 12.251-8.186 20.115-8.186h51.48v21.27h-51.48c-1.864 0-3.455.671-4.773 2.013-1.318 1.298-1.977 2.863-1.977 4.697s.659 3.4 1.977 4.697c1.318 1.297 2.909 1.946 4.773 1.946h28.433c7.819 0 14.524 2.729 20.115 8.186 5.546 5.502 8.319 12.101 8.319 19.795 0 7.739-2.773 14.337-8.319 19.794-5.591 5.458-12.296 8.186-20.115 8.186h-51.48v-21.337zm82.641-6.643c0-8.455-3.045-15.679-9.136-21.673-6.092-5.995-13.433-8.992-22.025-8.992h-28.433c-1.136 0-2.091-.38-2.864-1.141-.818-.805-1.227-1.744-1.227-2.818 0-1.118.409-2.057 1.227-2.818.773-.805 1.728-1.208 2.864-1.208h54.14v-26.638h-54.14c-8.591 0-15.933 2.997-22.024 8.991-6.091 5.994-9.137 13.219-9.137 21.673 0 8.455 3.046 15.679 9.137 21.673 6.091 5.995 13.433 8.992 22.024 8.992h28.433c1.137 0 2.091.38 2.864 1.141.819.805 1.228 1.744 1.228 2.818 0 1.118-.409 2.057-1.228 2.818-.773.805-1.727 1.208-2.864 1.208h-54.207v26.638h54.207c8.592 0 15.933-2.997 22.025-8.991 6.091-5.994 9.136-13.219 9.136-21.673zM293.336 106.524v26.638h29.797v69.314h27.07v-69.314H380v-26.638h-86.664zm2.727 2.684h81.21v21.27h-29.798v69.314H325.86v-69.314h-29.797v-21.27zM8 0C3.582 0 0 3.582 0 8v87.953h27.07V26.639h29.797V0H8zM2.727 8.684c0-1.591.633-3.117 1.758-4.243C5.61 3.316 7.136 2.684 8.727 2.684H54.14v21.271H24.342v69.314H2.727V8.684zM127.371 0v34.624H92.119V0h-27.07v95.953h27.07V61.329h35.252v34.624h27.07V0h-27.07zm2.66 37.308V2.684h21.683v90.585h-21.683V58.645H89.46v34.624H67.777V2.684H89.46v34.624h40.571zM162.623 0v95.953h83.937V69.314h-56.867V58.645h38.866V37.308h-38.866V26.639h56.867V0h-83.937zm2.728 2.684h78.55v21.271h-56.867v16.037h38.798v15.969h-38.798v15.97h56.867v21.338h-78.55V2.684zM31.502 278c4.727 4.697 10.478 7.045 17.251 7.045 5.728 0 10.796-1.744 15.205-5.233L79.3 294.909c-8.682 7.605-18.865 11.407-30.547 11.407-12.728 0-23.592-4.406-32.593-13.219-8.955-8.857-13.433-19.548-13.433-32.073 0-12.526 4.478-23.195 13.433-32.007 9.001-8.857 19.865-13.286 32.593-13.286 11.682 0 21.865 3.803 30.547 11.407l-15.342 15.165c-4.409-3.489-9.477-5.234-15.205-5.234-6.773 0-12.524 2.326-17.251 6.978-4.773 4.697-7.16 10.356-7.16 16.977 0 6.665 2.387 12.324 7.16 16.976zm17.251-38.247c5.955 0 11.046 2.08 15.274 6.24l19.16-18.855c-9.501-9.349-20.979-14.024-34.434-14.024-13.501 0-25.002 4.675-34.502 14.024C4.75 236.487 0 247.783 0 261.024c0 13.285 4.75 24.603 14.251 33.952C23.751 304.325 35.252 309 48.753 309c13.455 0 24.933-4.675 34.434-14.024l-19.16-18.855c-4.228 4.16-9.319 6.24-15.274 6.24-6 0-11.114-2.08-15.342-6.24-4.227-4.16-6.341-9.193-6.341-15.097 0-5.86 2.114-10.871 6.341-15.031 4.228-4.16 9.342-6.24 15.342-6.24zM91.369 309h27.07v-95.953h-27.07V309zm2.728-93.269h21.683v90.585H94.097v-90.585zM126.621 213.047v26.639h29.797V309h27.07v-69.314h29.797v-26.639h-86.664zm2.728 2.684h81.209v21.271h-29.797v69.314h-21.615v-69.314h-29.797v-21.271zM280.721 213.047l-13.978 23.955-14.046-23.955h-31.229l31.706 54.217V309h27.07v-41.736l31.775-54.217h-31.298zm-11.659 25.23l13.228-22.546h25.024l-29.388 50.191-.341.604v39.79h-21.683v-39.79l-.341-.604-29.388-50.191h24.956l13.228 22.546 2.386 4.026 2.319-4.026z"/></g><g fill="#2f2f2f" fill-rule="nonzero"><path d="M0 425.624v95.952h83.937v-26.638H27.07v-69.314H0zm2.727 2.684h21.684v69.247h56.867v21.337H2.727v-90.584zM91.437 473.6c0-12.481 4.501-23.149 13.501-32.007 9.001-8.857 19.842-13.285 32.525-13.285 12.682 0 23.524 4.428 32.524 13.285 9.001 8.858 13.501 19.526 13.501 32.007 0 12.481-4.5 23.149-13.501 32.007-9 8.857-19.842 13.285-32.524 13.285-12.683 0-23.524-4.428-32.525-13.285-9-8.858-13.501-19.526-13.501-32.007zm94.779 0c0-13.241-4.773-24.536-14.319-33.885-9.501-9.394-20.979-14.091-34.434-14.091-13.456 0-24.934 4.697-34.434 14.091-9.546 9.349-14.319 20.644-14.319 33.885s4.773 24.536 14.319 33.885c9.5 9.394 20.978 14.091 34.434 14.091 13.455 0 24.933-4.697 34.434-14.091 9.546-9.349 14.319-20.644 14.319-33.885zm-70.436 0c0-5.86 2.113-10.893 6.341-15.097 4.273-4.161 9.387-6.241 15.342-6.241s11.069 2.08 15.342 6.241c4.227 4.204 6.341 9.237 6.341 15.097 0 5.86-2.114 10.893-6.341 15.097-4.273 4.161-9.387 6.241-15.342 6.241s-11.069-2.08-15.342-6.241c-4.228-4.204-6.341-9.237-6.341-15.097zm46.093 0c0-6.621-2.386-12.279-7.159-16.976-4.773-4.697-10.524-7.046-17.251-7.046-6.728 0-12.478 2.349-17.251 7.046-4.728 4.697-7.092 10.355-7.092 16.976 0 6.621 2.364 12.279 7.092 16.976 4.773 4.653 10.523 6.979 17.251 6.979 6.727 0 12.478-2.326 17.251-6.979 4.773-4.697 7.159-10.355 7.159-16.976zM202.512 497.555h51.48c1.864 0 3.455-.649 4.773-1.946 1.319-1.298 1.978-2.863 1.978-4.697s-.659-3.4-1.978-4.697c-1.318-1.297-2.909-1.946-4.773-1.946h-28.433c-7.864 0-14.569-2.729-20.115-8.186-5.546-5.502-8.319-12.101-8.319-19.795 0-7.739 2.773-14.337 8.319-19.794 5.546-5.458 12.251-8.186 20.115-8.186h51.48v21.27h-51.48c-1.864 0-3.455.671-4.773 2.013-1.318 1.298-1.977 2.863-1.977 4.697s.659 3.4 1.977 4.697c1.318 1.297 2.909 1.946 4.773 1.946h28.433c7.819 0 14.524 2.729 20.115 8.186 5.546 5.502 8.319 12.101 8.319 19.795 0 7.739-2.773 14.337-8.319 19.794-5.591 5.458-12.296 8.186-20.115 8.186h-51.48v-21.337zm82.641-6.643c0-8.455-3.045-15.679-9.136-21.673-6.092-5.995-13.433-8.992-22.025-8.992h-28.433c-1.136 0-2.091-.38-2.864-1.141-.818-.805-1.227-1.744-1.227-2.818 0-1.118.409-2.057 1.227-2.818.773-.805 1.728-1.208 2.864-1.208h54.14v-26.638h-54.14c-8.591 0-15.933 2.997-22.024 8.991-6.091 5.994-9.137 13.219-9.137 21.673 0 8.455 3.046 15.679 9.137 21.673 6.091 5.995 13.433 8.992 22.024 8.992h28.433c1.137 0 2.091.38 2.864 1.141.819.805 1.228 1.744 1.228 2.818 0 1.118-.409 2.057-1.228 2.818-.773.805-1.727 1.208-2.864 1.208h-54.207v26.638h54.207c8.592 0 15.933-2.997 22.025-8.991 6.091-5.994 9.136-13.219 9.136-21.673zM293.336 425.624v26.638h29.797v69.314h27.07v-69.314H380v-26.638h-86.664zm2.727 2.684h81.21v21.27h-29.798v69.314H325.86v-69.314h-29.797v-21.27zM0 319.1v95.953h27.07v-69.314h29.797V319.1H0zm2.727 2.684H54.14v21.271H24.342v69.314H2.727v-90.585zM127.371 319.1v34.624H92.119V319.1h-27.07v95.953h27.07v-34.624h35.252v34.624h27.07V319.1h-27.07zm2.66 37.308v-34.624h21.683v90.585h-21.683v-34.624H89.46v34.624H67.777v-90.585H89.46v34.624h40.571zM162.623 319.1v95.953h83.937v-26.639h-56.867v-10.669h38.866v-21.337h-38.866v-10.669h56.867V319.1h-83.937zm2.728 2.684h78.55v21.271h-56.867v16.037h38.798v15.969h-38.798v15.97h56.867v21.338h-78.55v-90.585zM31.502 597.1c4.727 4.697 10.478 7.045 17.251 7.045 5.728 0 10.796-1.744 15.205-5.233L79.3 614.009c-8.682 7.605-18.865 11.407-30.547 11.407-12.728 0-23.592-4.406-32.593-13.219-8.955-8.857-13.433-19.548-13.433-32.073 0-12.526 4.478-23.195 13.433-32.007 9.001-8.857 19.865-13.286 32.593-13.286 11.682 0 21.865 3.803 30.547 11.407l-15.342 15.165c-4.409-3.489-9.477-5.234-15.205-5.234-6.773 0-12.524 2.326-17.251 6.978-4.773 4.697-7.16 10.356-7.16 16.977 0 6.665 2.387 12.324 7.16 16.976zm17.251-38.247c5.955 0 11.046 2.08 15.274 6.24l19.16-18.855c-9.501-9.349-20.979-14.024-34.434-14.024-13.501 0-25.002 4.675-34.502 14.024C4.75 555.587 0 566.883 0 580.124c0 13.285 4.75 24.603 14.251 33.952 9.5 9.349 21.001 14.024 34.502 14.024 13.455 0 24.933-4.675 34.434-14.024l-19.16-18.855c-4.228 4.16-9.319 6.24-15.274 6.24-6 0-11.114-2.08-15.342-6.24-4.227-4.16-6.341-9.193-6.341-15.097 0-5.86 2.114-10.871 6.341-15.031 4.228-4.16 9.342-6.24 15.342-6.24zM91.369 628.1h27.07v-95.953h-27.07V628.1zm2.728-93.269h21.683v90.585H94.097v-90.585zM126.621 532.147v26.639h29.797V628.1h27.07v-69.314h29.797v-26.639h-86.664zm2.728 2.684h81.209v21.271h-29.797v69.314h-21.615v-69.314h-29.797v-21.271zM280.721 532.147l-13.978 23.955-14.046-23.955h-31.229l31.706 54.217V628.1h27.07v-41.736l31.775-54.217h-31.298zm-11.659 25.23l13.228-22.546h25.024l-29.388 50.191-.341.604v39.79h-21.683v-39.79l-.341-.604-29.388-50.191h24.956l13.228 22.546 2.386 4.026 2.319-4.026z"/></g></svg>