<?xml version="1.0" encoding="UTF-8" standalone="no"?>
<!DOCTYPE svg PUBLIC "-//W3C//DTD SVG 1.1//EN" "http://www.w3.org/Graphics/SVG/1.1/DTD/svg11.dtd">
<svg width="100%" height="100%" viewBox="0 0 380 629" version="1.1" xmlns="http://www.w3.org/2000/svg" xmlns:xlink="http://www.w3.org/1999/xlink" xml:space="preserve" xmlns:serif="http://www.serif.com/" style="fill-rule:evenodd;clip-rule:evenodd;stroke-linejoin:round;stroke-miterlimit:2;">
    <g transform="matrix(1,0,0,1,-410,-10)">
        <g id="titlebg">
            <g>
                <g id="title" transform="matrix(0.700054,0,0,0.688904,402.999,1.81678)">
                    <g>
                        <g transform="matrix(1.53444,0,0,1.53444,-293.766,-224.547)">
                            <g transform="matrix(130,0,0,130,194.157,345.623)">
                                <path d="M0.029,-0.698L0.029,0L0.63,0L0.63,-0.194L0.223,-0.194L0.223,-0.698L0.029,-0.698ZM0.049,-0.679L0.204,-0.679L0.204,-0.175L0.611,-0.175L0.611,-0.02L0.049,-0.02L0.049,-0.679Z" style="fill:rgb(47,47,47);fill-rule:nonzero;"/>
                            </g>
                            <g transform="matrix(130,0,0,130,276.74,345.623)">
                                <path d="M0.049,-0.349C0.049,-0.44 0.081,-0.518 0.146,-0.582C0.21,-0.646 0.288,-0.679 0.378,-0.679C0.469,-0.679 0.547,-0.646 0.611,-0.582C0.676,-0.518 0.708,-0.44 0.708,-0.349C0.708,-0.258 0.676,-0.181 0.611,-0.116C0.547,-0.052 0.469,-0.02 0.378,-0.02C0.288,-0.02 0.21,-0.052 0.146,-0.116C0.081,-0.181 0.049,-0.258 0.049,-0.349ZM0.728,-0.349C0.728,-0.445 0.693,-0.528 0.625,-0.596C0.557,-0.664 0.475,-0.698 0.378,-0.698C0.282,-0.698 0.2,-0.664 0.132,-0.596C0.063,-0.528 0.029,-0.445 0.029,-0.349C0.029,-0.253 0.063,-0.171 0.132,-0.103C0.2,-0.034 0.282,0 0.378,0C0.475,0 0.557,-0.034 0.625,-0.103C0.693,-0.171 0.728,-0.253 0.728,-0.349ZM0.223,-0.349C0.223,-0.392 0.238,-0.428 0.269,-0.459C0.299,-0.489 0.336,-0.504 0.378,-0.504C0.421,-0.504 0.458,-0.489 0.488,-0.459C0.519,-0.428 0.534,-0.392 0.534,-0.349C0.534,-0.306 0.519,-0.27 0.488,-0.239C0.458,-0.209 0.421,-0.194 0.378,-0.194C0.336,-0.194 0.299,-0.209 0.269,-0.239C0.238,-0.27 0.223,-0.306 0.223,-0.349ZM0.553,-0.349C0.553,-0.397 0.536,-0.438 0.502,-0.473C0.468,-0.507 0.427,-0.524 0.378,-0.524C0.33,-0.524 0.289,-0.507 0.255,-0.473C0.221,-0.438 0.204,-0.397 0.204,-0.349C0.204,-0.301 0.221,-0.26 0.255,-0.226C0.289,-0.192 0.33,-0.175 0.378,-0.175C0.427,-0.175 0.468,-0.192 0.502,-0.226C0.536,-0.26 0.553,-0.301 0.553,-0.349Z" style="fill:rgb(47,47,47);fill-rule:nonzero;"/>
                            </g>
                            <g transform="matrix(130,0,0,130,375.129,345.623)">
                                <path d="M0.087,-0.175L0.456,-0.175C0.469,-0.175 0.481,-0.18 0.49,-0.189C0.5,-0.198 0.504,-0.21 0.504,-0.223C0.504,-0.236 0.5,-0.248 0.49,-0.257C0.481,-0.267 0.469,-0.271 0.456,-0.271L0.252,-0.271C0.196,-0.271 0.148,-0.291 0.108,-0.331C0.069,-0.371 0.049,-0.419 0.049,-0.475C0.049,-0.531 0.069,-0.579 0.108,-0.619C0.148,-0.659 0.196,-0.679 0.252,-0.679L0.621,-0.679L0.621,-0.524L0.252,-0.524C0.239,-0.524 0.228,-0.519 0.218,-0.509C0.209,-0.5 0.204,-0.488 0.204,-0.475C0.204,-0.462 0.209,-0.45 0.218,-0.441C0.228,-0.431 0.239,-0.427 0.252,-0.427L0.456,-0.427C0.512,-0.427 0.56,-0.407 0.6,-0.367C0.64,-0.327 0.66,-0.279 0.66,-0.223C0.66,-0.167 0.64,-0.119 0.6,-0.079C0.56,-0.039 0.512,-0.02 0.456,-0.02L0.087,-0.02L0.087,-0.175ZM0.679,-0.223C0.679,-0.285 0.657,-0.337 0.614,-0.381C0.57,-0.424 0.518,-0.446 0.456,-0.446L0.252,-0.446C0.244,-0.446 0.237,-0.449 0.232,-0.455C0.226,-0.46 0.223,-0.467 0.223,-0.475C0.223,-0.483 0.226,-0.49 0.232,-0.496C0.237,-0.501 0.244,-0.504 0.252,-0.504L0.64,-0.504L0.64,-0.698L0.252,-0.698C0.191,-0.698 0.138,-0.676 0.095,-0.633C0.051,-0.589 0.029,-0.537 0.029,-0.475C0.029,-0.414 0.051,-0.361 0.095,-0.317C0.138,-0.274 0.191,-0.252 0.252,-0.252L0.456,-0.252C0.464,-0.252 0.471,-0.249 0.477,-0.244C0.482,-0.238 0.485,-0.231 0.485,-0.223C0.485,-0.215 0.482,-0.208 0.477,-0.203C0.471,-0.197 0.464,-0.194 0.456,-0.194L0.068,-0.194L0.068,0L0.456,0C0.518,0 0.57,-0.022 0.614,-0.065C0.657,-0.109 0.679,-0.162 0.679,-0.223Z" style="fill:rgb(47,47,47);fill-rule:nonzero;"/>
                            </g>
                            <g transform="matrix(130,0,0,130,467.233,345.623)">
                                <path d="M0.029,-0.698L0.029,-0.504L0.243,-0.504L0.243,0L0.437,0L0.437,-0.504L0.65,-0.504L0.65,-0.698L0.029,-0.698ZM0.049,-0.679L0.63,-0.679L0.63,-0.524L0.417,-0.524L0.417,-0.02L0.262,-0.02L0.262,-0.524L0.049,-0.524L0.049,-0.679Z" style="fill:rgb(47,47,47);fill-rule:nonzero;"/>
                            </g>
                        </g>
                        <g transform="matrix(1.02531,0,0,0.444374,-38.4083,11.489)">
                            <g transform="matrix(194.552,0,0,448.895,0,314.314)">
                                <path d="M0.243,-0.698L0.243,0L0.437,0L0.437,-0.504L0.65,-0.504L0.65,-0.698L0.243,-0.698ZM0.262,-0.679L0.63,-0.679L0.63,-0.524L0.417,-0.524L0.417,-0.02L0.262,-0.02L0.262,-0.679Z" style="fill:rgb(47,47,47);fill-rule:nonzero;"/>
                            </g>
                            <g transform="matrix(194.552,0,0,448.895,132.14,314.314)">
                                <path d="M0.476,-0.698L0.476,-0.446L0.223,-0.446L0.223,-0.698L0.029,-0.698L0.029,0L0.223,0L0.223,-0.252L0.476,-0.252L0.476,0L0.669,0L0.669,-0.698L0.476,-0.698ZM0.495,-0.427L0.495,-0.679L0.65,-0.679L0.65,-0.02L0.495,-0.02L0.495,-0.271L0.204,-0.271L0.204,-0.02L0.049,-0.02L0.049,-0.679L0.204,-0.679L0.204,-0.427L0.495,-0.427Z" style="fill:rgb(47,47,47);fill-rule:nonzero;"/>
                            </g>
                            <g transform="matrix(194.552,0,0,448.895,268.08,314.314)">
                                <path d="M0.029,-0.698L0.029,0L0.63,0L0.63,-0.194L0.223,-0.194L0.223,-0.271L0.501,-0.271L0.501,-0.427L0.223,-0.427L0.223,-0.504L0.63,-0.504L0.63,-0.698L0.029,-0.698ZM0.049,-0.679L0.611,-0.679L0.611,-0.524L0.204,-0.524L0.204,-0.407L0.482,-0.407L0.482,-0.291L0.204,-0.291L0.204,-0.175L0.611,-0.175L0.611,-0.02L0.049,-0.02L0.049,-0.679Z" style="fill:rgb(47,47,47);fill-rule:nonzero;"/>
                            </g>
                        </g>
                        <g transform="matrix(1.53444,0,0,1.53444,-241.835,10.8011)">
                            <g transform="matrix(130,0,0,130,160.313,293.017)">
                                <path d="M0.255,-0.226C0.289,-0.191 0.33,-0.174 0.378,-0.174C0.419,-0.174 0.456,-0.187 0.487,-0.212L0.597,-0.103C0.535,-0.047 0.462,-0.02 0.378,-0.02C0.287,-0.02 0.209,-0.052 0.145,-0.116C0.081,-0.18 0.049,-0.258 0.049,-0.349C0.049,-0.44 0.081,-0.518 0.145,-0.582C0.209,-0.646 0.287,-0.679 0.378,-0.679C0.462,-0.679 0.535,-0.651 0.597,-0.596L0.487,-0.485C0.456,-0.511 0.419,-0.523 0.378,-0.523C0.33,-0.523 0.289,-0.507 0.255,-0.473C0.221,-0.438 0.204,-0.397 0.204,-0.349C0.204,-0.301 0.221,-0.259 0.255,-0.226ZM0.378,-0.504C0.421,-0.504 0.458,-0.489 0.488,-0.458L0.625,-0.596C0.557,-0.664 0.475,-0.698 0.378,-0.698C0.282,-0.698 0.199,-0.664 0.131,-0.596C0.063,-0.528 0.029,-0.445 0.029,-0.349C0.029,-0.252 0.063,-0.17 0.131,-0.102C0.199,-0.034 0.282,0 0.378,0C0.475,0 0.557,-0.034 0.625,-0.102L0.488,-0.239C0.458,-0.209 0.421,-0.194 0.378,-0.194C0.335,-0.194 0.299,-0.209 0.269,-0.239C0.238,-0.27 0.223,-0.306 0.223,-0.349C0.223,-0.392 0.238,-0.428 0.269,-0.458C0.299,-0.489 0.335,-0.504 0.378,-0.504Z" style="fill:rgb(47,47,47);fill-rule:nonzero;"/>
                            </g>
                            <g transform="matrix(130,0,0,130,245.372,293.017)">
                                <path d="M0.029,0L0.223,0L0.223,-0.698L0.029,-0.698L0.029,0ZM0.049,-0.679L0.204,-0.679L0.204,-0.02L0.049,-0.02L0.049,-0.679Z" style="fill:rgb(47,47,47);fill-rule:nonzero;"/>
                            </g>
                            <g transform="matrix(130,0,0,130,278.189,293.017)">
                                <path d="M0.029,-0.698L0.029,-0.504L0.243,-0.504L0.243,0L0.437,0L0.437,-0.504L0.65,-0.504L0.65,-0.698L0.029,-0.698ZM0.049,-0.679L0.63,-0.679L0.63,-0.524L0.417,-0.524L0.417,-0.02L0.262,-0.02L0.262,-0.524L0.049,-0.524L0.049,-0.679Z" style="fill:rgb(47,47,47);fill-rule:nonzero;"/>
                            </g>
                            <g transform="matrix(130,0,0,130,366.485,293.017)">
                                <path d="M0.454,-0.698L0.354,-0.524L0.253,-0.698L0.029,-0.698L0.256,-0.304L0.256,0L0.45,0L0.45,-0.304L0.678,-0.698L0.454,-0.698ZM0.37,-0.515L0.465,-0.679L0.644,-0.679L0.434,-0.313L0.431,-0.309L0.431,-0.02L0.276,-0.02L0.276,-0.309L0.273,-0.313L0.063,-0.679L0.242,-0.679L0.336,-0.515L0.354,-0.485L0.37,-0.515Z" style="fill:rgb(47,47,47);fill-rule:nonzero;"/>
                            </g>
                        </g>
                    </g>
                </g>
                <g id="title1" serif:id="title" transform="matrix(0.700054,1.68733e-16,-1.71464e-16,0.688904,402.999,320.917)">
                    <g>
                        <g transform="matrix(1.53444,0,0,1.53444,-293.766,-224.547)">
                            <g transform="matrix(130,0,0,130,194.157,345.623)">
                                <path d="M0.029,-0.698L0.029,0L0.63,0L0.63,-0.194L0.223,-0.194L0.223,-0.698L0.029,-0.698ZM0.049,-0.679L0.204,-0.679L0.204,-0.175L0.611,-0.175L0.611,-0.02L0.049,-0.02L0.049,-0.679Z" style="fill:rgb(47,47,47);fill-rule:nonzero;"/>
                            </g>
                            <g transform="matrix(130,0,0,130,276.74,345.623)">
                                <path d="M0.049,-0.349C0.049,-0.44 0.081,-0.518 0.146,-0.582C0.21,-0.646 0.288,-0.679 0.378,-0.679C0.469,-0.679 0.547,-0.646 0.611,-0.582C0.676,-0.518 0.708,-0.44 0.708,-0.349C0.708,-0.258 0.676,-0.181 0.611,-0.116C0.547,-0.052 0.469,-0.02 0.378,-0.02C0.288,-0.02 0.21,-0.052 0.146,-0.116C0.081,-0.181 0.049,-0.258 0.049,-0.349ZM0.728,-0.349C0.728,-0.445 0.693,-0.528 0.625,-0.596C0.557,-0.664 0.475,-0.698 0.378,-0.698C0.282,-0.698 0.2,-0.664 0.132,-0.596C0.063,-0.528 0.029,-0.445 0.029,-0.349C0.029,-0.253 0.063,-0.171 0.132,-0.103C0.2,-0.034 0.282,0 0.378,0C0.475,0 0.557,-0.034 0.625,-0.103C0.693,-0.171 0.728,-0.253 0.728,-0.349ZM0.223,-0.349C0.223,-0.392 0.238,-0.428 0.269,-0.459C0.299,-0.489 0.336,-0.504 0.378,-0.504C0.421,-0.504 0.458,-0.489 0.488,-0.459C0.519,-0.428 0.534,-0.392 0.534,-0.349C0.534,-0.306 0.519,-0.27 0.488,-0.239C0.458,-0.209 0.421,-0.194 0.378,-0.194C0.336,-0.194 0.299,-0.209 0.269,-0.239C0.238,-0.27 0.223,-0.306 0.223,-0.349ZM0.553,-0.349C0.553,-0.397 0.536,-0.438 0.502,-0.473C0.468,-0.507 0.427,-0.524 0.378,-0.524C0.33,-0.524 0.289,-0.507 0.255,-0.473C0.221,-0.438 0.204,-0.397 0.204,-0.349C0.204,-0.301 0.221,-0.26 0.255,-0.226C0.289,-0.192 0.33,-0.175 0.378,-0.175C0.427,-0.175 0.468,-0.192 0.502,-0.226C0.536,-0.26 0.553,-0.301 0.553,-0.349Z" style="fill:rgb(47,47,47);fill-rule:nonzero;"/>
                            </g>
                            <g transform="matrix(130,0,0,130,375.129,345.623)">
                                <path d="M0.087,-0.175L0.456,-0.175C0.469,-0.175 0.481,-0.18 0.49,-0.189C0.5,-0.198 0.504,-0.21 0.504,-0.223C0.504,-0.236 0.5,-0.248 0.49,-0.257C0.481,-0.267 0.469,-0.271 0.456,-0.271L0.252,-0.271C0.196,-0.271 0.148,-0.291 0.108,-0.331C0.069,-0.371 0.049,-0.419 0.049,-0.475C0.049,-0.531 0.069,-0.579 0.108,-0.619C0.148,-0.659 0.196,-0.679 0.252,-0.679L0.621,-0.679L0.621,-0.524L0.252,-0.524C0.239,-0.524 0.228,-0.519 0.218,-0.509C0.209,-0.5 0.204,-0.488 0.204,-0.475C0.204,-0.462 0.209,-0.45 0.218,-0.441C0.228,-0.431 0.239,-0.427 0.252,-0.427L0.456,-0.427C0.512,-0.427 0.56,-0.407 0.6,-0.367C0.64,-0.327 0.66,-0.279 0.66,-0.223C0.66,-0.167 0.64,-0.119 0.6,-0.079C0.56,-0.039 0.512,-0.02 0.456,-0.02L0.087,-0.02L0.087,-0.175ZM0.679,-0.223C0.679,-0.285 0.657,-0.337 0.614,-0.381C0.57,-0.424 0.518,-0.446 0.456,-0.446L0.252,-0.446C0.244,-0.446 0.237,-0.449 0.232,-0.455C0.226,-0.46 0.223,-0.467 0.223,-0.475C0.223,-0.483 0.226,-0.49 0.232,-0.496C0.237,-0.501 0.244,-0.504 0.252,-0.504L0.64,-0.504L0.64,-0.698L0.252,-0.698C0.191,-0.698 0.138,-0.676 0.095,-0.633C0.051,-0.589 0.029,-0.537 0.029,-0.475C0.029,-0.414 0.051,-0.361 0.095,-0.317C0.138,-0.274 0.191,-0.252 0.252,-0.252L0.456,-0.252C0.464,-0.252 0.471,-0.249 0.477,-0.244C0.482,-0.238 0.485,-0.231 0.485,-0.223C0.485,-0.215 0.482,-0.208 0.477,-0.203C0.471,-0.197 0.464,-0.194 0.456,-0.194L0.068,-0.194L0.068,0L0.456,0C0.518,0 0.57,-0.022 0.614,-0.065C0.657,-0.109 0.679,-0.162 0.679,-0.223Z" style="fill:rgb(47,47,47);fill-rule:nonzero;"/>
                            </g>
                            <g transform="matrix(130,0,0,130,467.233,345.623)">
                                <path d="M0.029,-0.698L0.029,-0.504L0.243,-0.504L0.243,0L0.437,0L0.437,-0.504L0.65,-0.504L0.65,-0.698L0.029,-0.698ZM0.049,-0.679L0.63,-0.679L0.63,-0.524L0.417,-0.524L0.417,-0.02L0.262,-0.02L0.262,-0.524L0.049,-0.524L0.049,-0.679Z" style="fill:rgb(47,47,47);fill-rule:nonzero;"/>
                            </g>
                        </g>
                        <g transform="matrix(1.02531,0,0,0.444374,-38.4083,11.489)">
                            <g transform="matrix(194.552,0,0,448.895,0,314.314)">
                                <path d="M0.243,-0.698L0.243,0L0.437,0L0.437,-0.504L0.65,-0.504L0.65,-0.698L0.243,-0.698ZM0.262,-0.679L0.63,-0.679L0.63,-0.524L0.417,-0.524L0.417,-0.02L0.262,-0.02L0.262,-0.679Z" style="fill:rgb(47,47,47);fill-rule:nonzero;"/>
                            </g>
                            <g transform="matrix(194.552,0,0,448.895,132.14,314.314)">
                                <path d="M0.476,-0.698L0.476,-0.446L0.223,-0.446L0.223,-0.698L0.029,-0.698L0.029,0L0.223,0L0.223,-0.252L0.476,-0.252L0.476,0L0.669,0L0.669,-0.698L0.476,-0.698ZM0.495,-0.427L0.495,-0.679L0.65,-0.679L0.65,-0.02L0.495,-0.02L0.495,-0.271L0.204,-0.271L0.204,-0.02L0.049,-0.02L0.049,-0.679L0.204,-0.679L0.204,-0.427L0.495,-0.427Z" style="fill:rgb(47,47,47);fill-rule:nonzero;"/>
                            </g>
                            <g transform="matrix(194.552,0,0,448.895,268.08,314.314)">
                                <path d="M0.029,-0.698L0.029,0L0.63,0L0.63,-0.194L0.223,-0.194L0.223,-0.271L0.501,-0.271L0.501,-0.427L0.223,-0.427L0.223,-0.504L0.63,-0.504L0.63,-0.698L0.029,-0.698ZM0.049,-0.679L0.611,-0.679L0.611,-0.524L0.204,-0.524L0.204,-0.407L0.482,-0.407L0.482,-0.291L0.204,-0.291L0.204,-0.175L0.611,-0.175L0.611,-0.02L0.049,-0.02L0.049,-0.679Z" style="fill:rgb(47,47,47);fill-rule:nonzero;"/>
                            </g>
                        </g>
                        <g transform="matrix(1.53444,0,0,1.53444,-241.835,10.8011)">
                            <g transform="matrix(130,0,0,130,160.313,293.017)">
                                <path d="M0.255,-0.226C0.289,-0.191 0.33,-0.174 0.378,-0.174C0.419,-0.174 0.456,-0.187 0.487,-0.212L0.597,-0.103C0.535,-0.047 0.462,-0.02 0.378,-0.02C0.287,-0.02 0.209,-0.052 0.145,-0.116C0.081,-0.18 0.049,-0.258 0.049,-0.349C0.049,-0.44 0.081,-0.518 0.145,-0.582C0.209,-0.646 0.287,-0.679 0.378,-0.679C0.462,-0.679 0.535,-0.651 0.597,-0.596L0.487,-0.485C0.456,-0.511 0.419,-0.523 0.378,-0.523C0.33,-0.523 0.289,-0.507 0.255,-0.473C0.221,-0.438 0.204,-0.397 0.204,-0.349C0.204,-0.301 0.221,-0.259 0.255,-0.226ZM0.378,-0.504C0.421,-0.504 0.458,-0.489 0.488,-0.458L0.625,-0.596C0.557,-0.664 0.475,-0.698 0.378,-0.698C0.282,-0.698 0.199,-0.664 0.131,-0.596C0.063,-0.528 0.029,-0.445 0.029,-0.349C0.029,-0.252 0.063,-0.17 0.131,-0.102C0.199,-0.034 0.282,0 0.378,0C0.475,0 0.557,-0.034 0.625,-0.102L0.488,-0.239C0.458,-0.209 0.421,-0.194 0.378,-0.194C0.335,-0.194 0.299,-0.209 0.269,-0.239C0.238,-0.27 0.223,-0.306 0.223,-0.349C0.223,-0.392 0.238,-0.428 0.269,-0.458C0.299,-0.489 0.335,-0.504 0.378,-0.504Z" style="fill:rgb(47,47,47);fill-rule:nonzero;"/>
                            </g>
                            <g transform="matrix(130,0,0,130,245.372,293.017)">
                                <path d="M0.029,0L0.223,0L0.223,-0.698L0.029,-0.698L0.029,0ZM0.049,-0.679L0.204,-0.679L0.204,-0.02L0.049,-0.02L0.049,-0.679Z" style="fill:rgb(47,47,47);fill-rule:nonzero;"/>
                            </g>
                            <g transform="matrix(130,0,0,130,278.189,293.017)">
                                <path d="M0.029,-0.698L0.029,-0.504L0.243,-0.504L0.243,0L0.437,0L0.437,-0.504L0.65,-0.504L0.65,-0.698L0.029,-0.698ZM0.049,-0.679L0.63,-0.679L0.63,-0.524L0.417,-0.524L0.417,-0.02L0.262,-0.02L0.262,-0.524L0.049,-0.524L0.049,-0.679Z" style="fill:rgb(47,47,47);fill-rule:nonzero;"/>
                            </g>
                            <g transform="matrix(130,0,0,130,366.485,293.017)">
                                <path d="M0.454,-0.698L0.354,-0.524L0.253,-0.698L0.029,-0.698L0.256,-0.304L0.256,0L0.45,0L0.45,-0.304L0.678,-0.698L0.454,-0.698ZM0.37,-0.515L0.465,-0.679L0.644,-0.679L0.434,-0.313L0.431,-0.309L0.431,-0.02L0.276,-0.02L0.276,-0.309L0.273,-0.313L0.063,-0.679L0.242,-0.679L0.336,-0.515L0.354,-0.485L0.37,-0.515Z" style="fill:rgb(47,47,47);fill-rule:nonzero;"/>
                            </g>
                        </g>
                    </g>
                </g>
            </g>
        </g>
    </g>
</svg>
