<svg viewBox="0 0 432 134" xmlns="http://www.w3.org/2000/svg" fill-rule="evenodd" clip-rule="evenodd" stroke-linejoin="round" stroke-miterlimit="2"><path d="M431.488 133.556H-.002v-21.624h2.6v-2.671h4.73v2.67h1.37v-2.62h2.36v2.62h1.01v14.139h3.12v-25.332h1.29v-4.215h.86v-2.087h2.35v2.087h.86v1.4h3.92v2.815h1.43v14.155h1.59V98.368l3.65-1.584v-8.835h4.72v6.782l4.69-2.035V82.58h1.11v-1.475h9.29v1.475h.87v43.49h2.65V92.21h19.49v9.428h6.02V72h4.34v-4.898h4.46V72h10.69v40.774h4.47V64.653h8.2v-3.817h.98v-5.418h2.13v5.418h.73v-5.418h2.13v5.418h.85v-5.418h2.13v5.418h.91v-5.418h2.13v5.418h2.55v65.234h2.48V90.728h8.97v4.886h22.82V82.433h1.65v-4.324l8.07 2.435v1.889h1.65v27.32h5.32V94.03h.74v-4.907h5.64v4.907h.55v-2.21h1.22v2.21h.53v-2.21h1.21v2.21h1.47v15.724h3.44V60.608h4v-1.751h-2.55v-1.02h2.55V45.225h2.4v-8.332c1.14-1.606 2.28-2.6 3.42-2.992v-4.177l1.13-6.327 1.13 6.327v4.187c1.13.4 2.27 1.398 3.41 2.982v8.332h2.4v12.614h2.55v1.019h-2.55v1.75h4v39.674h7.89v-1.913h10.71V72h1.85v-3.92h2.38v-2.982h9.23v2.982h2.39V72h1.85v37.854h2.31V93.078h4.09v16.776h1.87V93.078h4.1v16.776h1.56v16.216h5.99V81.389h1.85v-1.354h5.68v1.354h4.45v-2.28h2.28v2.28h.79v31.385h3.53V72h2.61v-4.898h4.95V72h9.32v16.796h8.68v23.978h5.6v-6.252h2.42v-3.857h4.95v3.857h6.23v-3.857h4.95v3.857h1.75V87.658h16.73v18.864h3.58v7.076h3.28v12.472h5.44V81.976h2.13v-3.1h4.95v3.1h9.65v3.327h4.81v-3.327h6.7v-2.053h1.67v2.053h1.13v-3.1h4.95v3.1h2.28v44.094h3.29v-9.821h6.04V105.39h6.04v-1.078h4.95v1.078h3.28v28.165zm-277.29-31.918V98.05h-16.07v28.02h1.89v-22.542h5.12v-4.131h3.03v4.13h1.14v-4.13h3.04v4.13h.75v-1.89h1.1zm60.13 14.687v9.745h7.89v-9.745h-7.89zm172.02-11.306v21.05h4.81v-21.05h-4.81zm-172.02-2.025v10.617h7.89v-10.617h-7.89zm172.02-15.336v15.007h4.81V87.658h-4.81zM160.198 98.05v3.588h.75V98.05h-.75zM103.273 16.479l2.249-2.73-1.398-.697c-2.258.54-4.754 1.333-7.325 2.208l-10.745-4.31.7-1.22c1.397.075 1.99-.29 1.64-1.027L103.87.485a.1.1 0 00-.03-.187l-1.364-.253a.996.996 0 00-.48.029L83.432 5.866l-3.79-1.523c-1.275-.163-1.98.682-1.694 2.256l1.061.662-1.302.374L60.227.8A5.126 5.126 0 0058.86.472c-2.147-.19-4.57.08-5.606.89a.886.886 0 00-.26.728c.039.209.115.34.115.34.996 1.292 2.283 2.37 3.88 3.22.204.11.416.204.633.285 1.708.649 13.354 5.006 13.43 5.24.041.123-.005.776-.063 1.407a.988.988 0 01-1.24.981c-.32-.073-.63-.154-.807-.2a.743.743 0 00-.552.068c-.557.349-.71.881-.572 1.519a.72.72 0 00.433.518c.407.197 1.182.513 1.741.741a1 1 0 01.621.981l-.2 3.639a1 1 0 00.702 1.01l.082.025a1 1 0 001.035-.281l4.436-4.863 3.767-1.346s1.336.46 1.674.575c.051.018.104.031.157.04l2.774.474a1 1 0 01.183.05l6.715 2.525c.054.02.11.036.168.047 1.968.367 3.77.547 5.553.706-.047 1.097-.048 1.969 0 2.588.479.33.97.517 1.472.585.859-.747 1.717-1.702 2.575-2.759l2.622.206c.177-.156.269-.368.303-.62l-1.173-.952 7.388-3.155-1.524-.61c-1.664.235-3.715.723-6.05 1.405z" fill="#2d2d2d"/></svg>